<svg width="48" height="48" viewBox="0 0 48 48" fill="none" xmlns="http://www.w3.org/2000/svg">
  <circle cx="24" cy="24" r="20" fill="#B39DDB"/>
  <path d="M16 20C17.1046 20 18 19.1046 18 18C18 16.8954 17.1046 16 16 16C14.8954 16 14 16.8954 14 18C14 19.1046 14.8954 20 16 20Z" fill="#212121"/>
  <path d="M32 20C33.1046 20 34 19.1046 34 18C34 16.8954 33.1046 16 32 16C30.8954 16 30 16.8954 30 18C30 19.1046 30.8954 20 32 20Z" fill="#212121"/>
  <path d="M16 28C16 28 20 34 24 34C28 34 32 28 32 28" stroke="#212121" stroke-width="2" stroke-linecap="round"/>
  <path d="M20 14L18 12" stroke="#212121" stroke-width="2" stroke-linecap="round"/>
  <path d="M28 14L30 12" stroke="#212121" stroke-width="2" stroke-linecap="round"/>
</svg>